<!--
  - Copyright (c) Haulmont 2024. All Rights Reserved.
  - Use is subject to license terms.
  -->

<svg width="32" height="32" viewBox="0 0 32 32" fill="none" xmlns="http://www.w3.org/2000/svg">
    <g clip-path="url(#clip0_3922_432)">
        <path d="M22.1132 18.0302C22.5782 17.6246 23.076 17.229 23.5601 16.8922C23.6707 16.8151 23.7571 16.7112 23.8124 16.5939C23.8556 16.5 23.8798 16.3961 23.8798 16.2905V14.457C23.8798 14.2676 23.7485 14.1017 23.5601 14.0497L22.0959 13.6525C22.0493 13.6408 21.9991 13.6307 21.9507 13.6274C21.7727 13.6156 21.5946 13.6626 21.4477 13.7615C19.9767 14.7603 18.4537 16.1749 17.5514 17.1871C17.3353 17.4318 17.1227 17.6615 16.9187 17.881C13.7329 21.2916 11.9352 21.8849 9.83491 21.7441C7.62229 21.5966 4.66291 19.7112 4.86688 16.5603C5.00517 14.3916 7.27311 11.7721 9.87812 11.7721C11.0086 11.7721 11.8038 12.0469 12.4209 12.4374C12.4728 12.3972 12.5246 12.3536 12.5765 12.3101C13.1227 11.8559 13.6188 11.3765 14.0994 10.9123L14.1201 10.8905C14.3552 10.6642 14.6059 10.4196 14.8565 10.1883C14.9948 10.0609 15.1262 9.94357 15.2593 9.82626C14.1115 8.90782 12.4226 8.03296 9.87639 8.03296C7.67069 8.03296 5.50474 8.9648 3.77786 10.6542C2.15124 12.2464 1.14692 14.3128 1.01727 16.3274C0.85997 18.7542 1.78132 21.057 3.60673 22.8084C5.21952 24.357 7.39238 25.329 9.5687 25.4749C9.84182 25.4933 10.1098 25.5017 10.3742 25.5017C13.1262 25.5017 15.446 24.4911 18.1115 22.0508C18.5056 21.6888 18.9101 21.295 19.3232 20.8676C19.6966 20.4821 20.0786 20.0715 20.4693 19.6324C20.8773 19.1732 21.465 18.5933 22.1132 18.0302Z" fill="#33C562"/>
        <path d="M29.5134 10.2184C28.3501 8.69328 26.6456 7.76646 24.5851 7.53685C22.0683 7.25361 19.4823 8.6849 17.7537 9.93685C17.2368 10.3123 16.796 10.6693 16.4572 10.9592C16.2775 11.1151 16.1271 11.2525 16.0078 11.3598C15.7779 11.5743 15.5428 11.8005 15.2956 12.0402C14.7943 12.5246 14.2619 13.0391 13.6603 13.5385C13.2524 13.8788 12.8133 14.2123 12.3328 14.5257C12.0303 14.7218 11.7122 14.9112 11.3699 15.0871C11.1106 15.2212 10.9274 15.4609 10.8704 15.7391L10.5402 17.3815C10.4935 17.6112 10.6214 17.8391 10.8427 17.9296L12.2342 18.486C12.5022 18.5933 12.8081 18.5782 13.0657 18.4475C14.1011 17.9195 14.9896 17.3162 15.7571 16.7112C16.6577 16.0022 17.3959 15.2899 18.0182 14.6882C18.2498 14.4653 18.4676 14.2525 18.6681 14.0681C19.5653 13.2385 20.5246 12.5463 21.4252 12.0536C22.4797 11.4771 23.4529 11.1754 24.1392 11.2508C25.1279 11.3614 25.892 11.7637 26.4106 12.4458C27.019 13.2419 27.2731 14.3916 27.0743 15.4458C26.8375 16.7011 25.8747 17.576 24.8012 17.9882C24.7165 18.0687 24.6249 18.1424 24.5281 18.2112C24.1253 18.4894 23.6742 18.8447 23.2265 19.2352C22.6647 19.7212 22.1201 20.2508 21.7295 20.6916C21.446 21.01 21.1763 21.305 20.9101 21.5849C21.6603 21.8363 22.497 21.9972 23.3993 21.9972C23.5947 21.9972 23.7934 21.9888 23.9922 21.9737C27.4425 21.7022 30.2705 19.2922 30.8686 16.1179C31.261 14.048 30.7528 11.8441 29.5134 10.2201V10.2184Z" fill="#33C562"/>
    </g>
    <defs>
        <clipPath id="clip0_3922_432">
            <rect width="30" height="18" fill="white" transform="translate(1 7.5)"/>
        </clipPath>
    </defs>
</svg>
