<!--
  - Copyright (c) Haulmont 2024. All Rights Reserved.
  - Use is subject to license terms.
  -->

<svg width="33" height="32" viewBox="0 0 33 32" fill="none" xmlns="http://www.w3.org/2000/svg">
<g clip-path="url(#clip0_2686_130)">
<path d="M24.304 13.7084C24.1415 13.1951 23.9422 12.6902 23.7094 12.2038C22.8671 10.6858 21.4202 9.59188 19.7388 9.20479C18.7541 8.97591 17.7326 8.99947 16.7663 9.2637C16.845 9.29904 16.9237 9.33607 17.0024 9.37646C18.4627 10.0867 19.7003 11.1991 20.5778 12.6078C21.8154 14.5937 22.2089 16.9448 21.6864 19.2286C21.5793 19.6947 21.4369 20.1458 21.2611 20.5834C21.0819 21.0243 20.8675 21.4501 20.6197 21.8574L20.4656 22.098C19.779 23.1482 18.8864 24.02 17.8096 24.6965C15.8335 25.9402 13.494 26.3357 11.2214 25.8107C8.67428 25.2216 6.54243 23.5319 5.37016 21.1758C5.15748 20.7483 4.97829 20.3006 4.83761 19.8445L4.80412 19.7368C3.96846 17.2376 3.83951 14.5533 4.43067 11.9716C4.75053 10.573 5.26131 9.25865 5.95797 8.04354C5.83907 8.13779 5.72351 8.23204 5.60796 8.32965C5.60796 8.32965 5.60796 8.33133 5.60629 8.33302C3.71056 9.94867 2.36748 12.1399 1.79809 14.629C0.354528 20.9351 4.28497 27.2479 10.56 28.6986C11.9181 29.0117 13.3181 29.0807 14.6847 28.904C15.3344 28.8198 15.9758 28.6801 16.6038 28.4866C17.5751 28.1853 18.5063 27.7545 19.3737 27.2092C22.018 25.5464 23.8585 22.9479 24.5585 19.8933C24.7561 19.0266 24.8549 18.143 24.8549 17.2612C24.8549 16.0595 24.6707 14.8596 24.304 13.7084Z" fill="#3D72D6"/>
<path d="M29.4921 8.19838C27.6282 5.20774 24.7226 3.12591 21.3113 2.33659C20.345 2.11276 19.3536 2 18.3673 2C14.4837 2 10.8145 3.72168 8.30417 6.7241C6.96109 8.32797 6.04337 10.1826 5.57279 12.2358C5.02517 14.629 5.15077 17.1164 5.93787 19.4305L5.97304 19.5365C6.10868 19.9236 6.2594 20.3006 6.42352 20.6591C7.44005 22.6938 9.28385 24.1529 11.4844 24.6629C13.4521 25.1173 15.4768 24.7756 17.1883 23.6985C17.7259 23.3602 18.2115 22.9648 18.6385 22.5171C18.0022 22.5406 17.3608 22.4801 16.7328 22.3353C14.8354 21.8961 13.221 20.7399 12.1877 19.0821C11.1545 17.4227 10.8262 15.4587 11.2633 13.5519C11.7456 11.4516 13.1172 9.67771 15.028 8.68644C16.5586 7.89208 18.3254 7.66656 20.0017 8.05532C22.0113 8.51982 23.7379 9.82749 24.741 11.6451C25.0425 12.1904 25.2736 12.7693 25.426 13.3685C26.121 15.5597 26.2164 17.9057 25.7023 20.1559C24.932 23.5201 22.9056 26.3778 19.9967 28.2072C19.9381 28.2425 19.8812 28.2796 19.8225 28.3149C21.7668 28.0978 23.6475 27.4398 25.3339 26.3795C28.3047 24.5097 30.3746 21.5881 31.1634 18.1531C31.3895 17.1669 31.5 16.1706 31.5 15.181C31.5 12.734 30.8184 10.3273 29.4921 8.19838Z" fill="#043278"/>
</g>
<defs>
<clipPath id="clip0_2686_130">
<rect width="30" height="26.9999" fill="white" transform="translate(1.5 2)"/>
</clipPath>
</defs>
</svg>
